<svg id="Capa_1" data-name="Capa 1" xmlns="http://www.w3.org/2000/svg" width="79.7028mm" height="93.7333mm" viewBox="0 0 225.9291 265.7008"><defs><style>.cls-1{fill:#020202;}</style></defs><path class="cls-1" d="M112.5918,11.601h0A93.1695,93.1695,0,1,0,205.76,104.7691,93.2764,93.2764,0,0,0,112.5918,11.601m0,192.2862a99.1158,99.1158,0,1,1,99.1132-99.1181A99.227,99.227,0,0,1,112.5918,203.8872Z"/><path class="cls-1" d="M110.1289,63.9467q-10.1586,0-14.9365,7.8888-4.7782,7.8912-4.7715,24.5536c0,.6885.0391,1.9737.1328,3.8595.0918,1.8915.1387,3.0663.1387,3.5165a48.0848,48.0848,0,0,0,.4092,5.2978c.2744,2.35.4931,4.2706.6767,5.7736q1.4415-6.5451,5.4922-9.8937A15.9521,15.9521,0,0,1,107.749,101.6a21.29,21.29,0,0,1,10.2949,2.8,39.2456,39.2456,0,0,1,10.3691,8.7939l.2052-4.578.0673-7.6476q0-19.7371-4.335-28.3808Q120.0263,63.9477,110.1289,63.9467Z"/><path class="cls-1" d="M113.7148,123.6362a14.7423,14.7423,0,0,0-8.3525-3.0723,7.2308,7.2308,0,0,0-5.3535,2.0831,7.4065,7.4065,0,0,0-2.083,5.4892,8.1316,8.1316,0,0,0,3,6.5859,12.213,12.213,0,0,0,8.0537,2.4864,21.0919,21.0919,0,0,0,6.746-1.0937,32.1831,32.1831,0,0,0,3.4141-1.3927,25.8923,25.8923,0,0,0,3.4072-2.0136A39.8952,39.8952,0,0,0,113.7148,123.6362Z"/><path class="cls-1" d="M112.5918,17.8325a86.939,86.939,0,1,0,86.9364,86.9366A86.9358,86.9358,0,0,0,112.5918,17.8325ZM172.954,138.5053a27.8776,27.8776,0,0,1-4.4336,9.6095q-5.6043,7.642-16.5078,7.6484a25.2186,25.2186,0,0,1-11.3534-2.629,35.4982,35.4982,0,0,1-10.2677-8.0839,74.136,74.136,0,0,1-11.3906,2.9717,69.3661,69.3661,0,0,1-12.1425,1.0556q-23.6,0-37.8222-13.5487T54.81,99.4477q0-23.2705,14.4648-36.5165Q83.7354,49.6919,109.2412,49.69q25.45,0,39.8378,13.2413,14.3965,13.248,14.3936,36.5224a56.2063,56.2063,0,0,1-2.999,19.32A42.9686,42.9686,0,0,1,151.2,133.5963a28.9394,28.9394,0,0,0,3.8847,2.5185,7.9575,7.9575,0,0,0,3.34.8241,4.5879,4.5879,0,0,0,4.3633-2.5995q1.3755-2.5854,1.375-8.1816v-.8125h10.2892A51.4914,51.4914,0,0,1,172.954,138.5053Z"/><path class="cls-1" d="M32.1358,246.1977h0a15.4807,15.4807,0,0,0-3.4746-3.5692,5.8112,5.8112,0,0,0-3.2881-1.21,2.8475,2.8475,0,0,0-2.1065.8194,2.9217,2.9217,0,0,0-.8193,2.1612,3.1928,3.1928,0,0,0,1.1826,2.5878,4.7841,4.7841,0,0,0,3.166.98,8.3836,8.3836,0,0,0,2.6563-.4295,12.9461,12.9461,0,0,0,1.3408-.5509,9.7369,9.7369,0,0,0,1.3428-.7891m-12.1036-7.0332h0a6.6986,6.6986,0,0,1,2.16-3.8905,6.27,6.27,0,0,1,4.1191-1.3145,8.3666,8.3666,0,0,1,4.0528,1.1,15.4647,15.4647,0,0,1,4.08,3.462l.08-1.8017.0274-3.0088q0-7.765-1.7051-11.1651a5.8087,5.8087,0,0,0-5.5947-3.4,6.3741,6.3741,0,0,0-5.877,3.1054q-1.8794,3.1026-1.8779,9.6613c0,.2666.0166.7715.0527,1.5166q.0556,1.1147.0547,1.3846a19.155,19.155,0,0,0,.16,2.0831C19.8721,237.8188,19.9619,238.5727,20.0322,239.1645Zm23.375,7.3809a11.7749,11.7749,0,0,0,1.5284.9923,3.15,3.15,0,0,0,1.3154.3222,1.8056,1.8056,0,0,0,1.7178-1.0185,7.3045,7.3045,0,0,0,.5371-3.22v-.3251h4.0517a20.3341,20.3341,0,0,1-.5908,5.1816,10.9977,10.9977,0,0,1-1.7431,3.78,7.54,7.54,0,0,1-6.4961,3.0057,9.91,9.91,0,0,1-4.4668-1.0292,14.0451,14.0451,0,0,1-4.0411-3.1807,29.2712,29.2712,0,0,1-4.48,1.1671,27.0832,27.0832,0,0,1-4.7754.4149q-9.2842,0-14.88-5.33Q5.49,241.974,5.4893,233.1128q0-9.1566,5.6894-14.3652,5.6865-5.2091,15.7227-5.21,10.0107,0,15.6738,5.21,5.6616,5.2091,5.66,14.3682a22.1063,22.1063,0,0,1-1.1787,7.5986A16.8657,16.8657,0,0,1,43.4072,246.5454Z"/><path class="cls-1" d="M74.24,247.7524A12.0759,12.0759,0,0,1,70.041,251.31a11.893,11.893,0,0,1-5.4082,1.2188q-4.9658,0-7.0185-2.1651t-2.0508-7.4912V232.97a3.08,3.08,0,0,0-.4961-2.0977,3.2033,3.2033,0,0,0-2.1074-.4815h-.8613v-4.83H66.378V242.353a5.3554,5.3554,0,0,0,.871,3.3575,3.1594,3.1594,0,0,0,2.6446,1.1016,3.561,3.561,0,0,0,2.9775-1.4269,6.1946,6.1946,0,0,0,1.1006-3.876v-8.5361a3.0809,3.0809,0,0,0-.499-2.1,3.0761,3.0761,0,0,0-2.0508-.4815H70.3467v-4.83H84.7852v18.5643a2.043,2.043,0,0,0,2.5761,2.58h1.1534v4.83H74.24Z"/><path class="cls-1" d="M107.167,239.4868h0l-2.5976,1.3145q-3.6826,1.7754-3.6846,3.3827a2.3725,2.3725,0,0,0,.8066,1.8516,2.9737,2.9737,0,0,0,2.0655.7217,3.228,3.228,0,0,0,2.455-1.0028,3.8091,3.8091,0,0,0,.9551-2.7248v-3.5429Zm1.1,9.3106a8.85,8.85,0,0,1-3.8506,2.7275,15.5539,15.5539,0,0,1-5.623.9511,9.4548,9.4548,0,0,1-6.332-1.909,6.7522,6.7522,0,0,1-2.2286-5.4259,6.4356,6.4356,0,0,1,1.9737-5.1435q1.9716-1.7065,7.6347-2.7012,4.6392-.8058,5.8887-1.7872a3.5356,3.5356,0,0,0,1.2481-2.9677,3.9221,3.9221,0,0,0-1.3809-3.1425,5.52,5.52,0,0,0-3.7168-1.1836,5.84,5.84,0,0,0-1.584.2431,6.2748,6.2748,0,0,0-1.6621.671,4.1556,4.1556,0,0,1,2.1445,1.287,3.4338,3.4338,0,0,1,.7247,2.2549,3.3313,3.3313,0,0,1-1.3028,2.7354,5.404,5.404,0,0,1-3.499,1.0478,5.8564,5.8564,0,0,1-3.96-1.2207,4.2631,4.2631,0,0,1-1.4072-3.3956q0-3.3544,3.4893-5.2713,3.4863-1.9189,9.74-1.921a31.4269,31.4269,0,0,1,6.1973.54,11.0754,11.0754,0,0,1,4.0272,1.4766,6.1576,6.1576,0,0,1,2.3594,2.7011,13.0554,13.0554,0,0,1,.6719,4.8486v10.0244a2.4949,2.4949,0,0,0,.23,1.3281,1.02,1.02,0,0,0,.8692.3077,1.0627,1.0627,0,0,0,.9-.3331,2.334,2.334,0,0,0,.2559-1.3027v-3.14h3.62v3.4064q0,4.2685-1.9326,6.1191-1.9321,1.8529-6.3047,1.8534a9.1335,9.1335,0,0,1-4.1854-.8877A7.916,7.916,0,0,1,108.2666,248.7974Z"/><path class="cls-1" d="M128.6855,222.0464a2.0572,2.0572,0,0,0-2.5733-2.5792h-1.21v-4.83h14.6v29.4882a3.1344,3.1344,0,0,0,.4814,2.0959,3.0569,3.0569,0,0,0,2.0684.4843h.8595v4.83H124.9023v-4.83h1.21a3.2476,3.2476,0,0,0,2.0655-.4843,3.0608,3.0608,0,0,0,.5078-2.0959Z"/><path class="cls-1" d="M148.3272,218.53h0a4.8337,4.8337,0,0,1,1.4393-3.5566A4.9572,4.9572,0,0,1,156.77,215a4.9546,4.9546,0,0,1,.0118,7.0185,4.99,4.99,0,0,1-7.0293.0517,4.8033,4.8033,0,0,1-1.4257-3.54M159.44,244.1254a3.167,3.167,0,0,0,.4814,2.0723,3.0252,3.0252,0,0,0,2.0947.5079h.9395v4.83H144.9512v-4.83H146.05a3.0741,3.0741,0,0,0,2.0518-.4961,2.9671,2.9671,0,0,0,.5244-2.09V232.9731a3.0708,3.0708,0,0,0-.498-2.1,3.1391,3.1391,0,0,0-2.0782-.4815h-1.0985v-4.83H159.44Z"/><path class="cls-1" d="M167.8134,230.3911h-3.6211v-4.83h.2119a6.0124,6.0124,0,0,0,5.0625-2.3311q1.793-2.3232,2.6807-7.7343H178.63v10.0654h7.6738v4.83H178.63v14.0605a4.4358,4.4358,0,0,0,.47,2.3351,1.6279,1.6279,0,0,0,1.4737.7217,1.7442,1.7442,0,0,0,1.7148-1.1652,14.07,14.07,0,0,0,.499-4.6571V239.272h4.7237v3.5165q0,5.2866-2.2432,7.5665-2.2368,2.2806-7.4443,2.2812a13.3994,13.3994,0,0,1-4.9239-.8192,8.3219,8.3219,0,0,1-3.4209-2.4279,6.3276,6.3276,0,0,1-1.2762-2.4432,19.19,19.19,0,0,1-.3888-4.6417Z"/><path class="cls-1" d="M211.27,232.851l.1855-.4463.18-.6a1.0812,1.0812,0,0,0-.6963-1.0332,3.7288,3.7288,0,0,0-1.0215-.2871,11.2482,11.2482,0,0,0-1.6357-.0928v-4.83h13.23v4.83a4.95,4.95,0,0,0-2.5645.546,5.0637,5.0637,0,0,0-1.6767,2.4043l-8.292,20.3935a16.9728,16.9728,0,0,1-4.9493,7.2187,11.1411,11.1411,0,0,1-7.1269,2.3907,9.8049,9.8049,0,0,1-6.4111-1.9609,6.4756,6.4756,0,0,1-2.3877-5.2863,5.0518,5.0518,0,0,1,1.4882-3.7685,5.2586,5.2586,0,0,1,3.8536-1.4628,4.96,4.96,0,0,1,3.3652,1.1259,3.6032,3.6032,0,0,1,1.3,2.8457,3.7023,3.7023,0,0,1-.8447,2.4951,4.6892,4.6892,0,0,1-2.6143,1.3955,2.9076,2.9076,0,0,0,.87.6826,2.4656,2.4656,0,0,0,1.1446.2549,4.6252,4.6252,0,0,0,3.124-1.3809,12.518,12.518,0,0,0,2.7236-3.9686l-8.64-19.7588-.1631-.3477q-1.6875-3.8217-3.5684-3.8184h-.9922v-4.83h16.93v4.83a5.0335,5.0335,0,0,0-1.9707.2266.853.853,0,0,0-.3887.7968,3.182,3.182,0,0,0,.2413,1.0254l.1357.3242,3.7441,9.1681Z"/></svg>